<svg width="750" height="750" viewBox="0 0 750 750" fill="none" xmlns="http://www.w3.org/2000/svg">
<rect width="750" height="750" fill="black"/>
<path fill-rule="evenodd" clip-rule="evenodd" d="M513.723 311.922C513.723 311.922 478.918 317.898 472.5 304.5C472.5 304.5 490.459 341.5 504.47 374C499.558 464.037 477 552.5 471.769 555.5C433.637 544.794 388.547 376.083 364.431 366.5C357.928 363.916 326 552.5 326 552.5C312.3 537.518 332.491 367.102 336.274 350C339.58 335.057 354.556 317.575 344.456 311.922C344.456 311.922 295.956 298.43 312 308C312 308 289.664 290.293 307.473 264.708C341.246 216.219 318.544 193.888 318.544 193.888C318.544 193.888 328.894 196.249 336.274 203.458C343.735 210.795 348.387 223.109 344.456 235.997C344.456 235.997 368.442 230.255 364.431 193.25C362.025 170.855 370.929 132.638 408.634 132C408.634 132 378.79 152.417 402.536 183.68C426.282 214.943 460.777 188.146 456.766 169.643C456.766 169.643 465.911 179.852 459.333 195.802C452.755 211.753 442.968 239.187 465.51 258.328C465.51 258.328 458.693 240.463 471.769 223.237C475.491 218.334 478.933 214.516 481.86 211.269C489.219 203.108 493.328 198.55 490.459 189.422C490.459 189.422 504.659 200.077 498 219.409C488.054 248.102 496.598 265.013 504.47 280.597C509.551 290.654 514.353 300.159 513.723 311.922Z" fill="url(#paint0_linear)"/>
<path d="M386.064 287.687L447.164 456.749H447.757C448.548 454.376 449.537 444.49 450.723 427.089L470.299 287.687H520.721L482.756 557H432.334L369.455 387.345C369.059 390.113 368.664 394.265 368.268 399.802C367.873 405.339 367.082 411.271 365.896 417.598L346.913 557H297.084L335.049 287.687H386.064Z" fill="white"/>
<path d="M297.51 557C304.038 557.141 315.876 556.859 322.403 557C327.805 537.002 318.346 518.911 322.403 495.415C318.66 488.094 324.513 449.683 327.578 426.166C333.034 383.973 339.711 335.766 344.01 288C332.089 287.742 337.673 288.355 325.753 288.097C293.024 291.551 260.563 295.704 228.543 299.173C261.503 304.741 294.053 309.607 326.303 315.16C293.843 319.313 261.823 322.782 230.072 326.95C261.897 332.494 293.453 337.338 324.568 342.867C293.243 347.045 262.216 350.535 231.601 354.728C262.432 360.25 292.711 365.067 322.691 370.571C292.501 374.773 262.752 378.291 233.413 382.512C262.967 388.006 292.111 392.799 320.814 398.275C291.901 402.505 263.429 406.05 235.509 410.302C263.786 415.769 291.511 420.53 318.795 425.976C291.301 430.236 264.248 433.813 237.89 438.098C264.748 443.534 290.911 448.262 316.634 453.674C290.701 457.968 265.351 461.581 240.554 465.9C265.709 471.3 290.311 475.994 314.331 481.369C290.101 485.7 266.596 489.353 243.785 493.715C267.11 498.381 289.853 503.728 311.744 509.057C289.516 512.738 268.124 517.13 247.442 521.538C268.639 526.159 289.111 531.457 308.732 536.737C288.916 540.47 270.079 544.917 252.093 549.384C270.086 551.16 281.564 552.493 297.51 557Z" fill="white"/>
<defs>
<linearGradient id="paint0_linear" x1="408.038" y1="425.916" x2="408.038" y2="131.994" gradientUnits="userSpaceOnUse">
<stop stop-color="#FF7543"/>
<stop offset="0.6072" stop-color="#FFD01F"/>
<stop offset="1" stop-color="#FFF900"/>
</linearGradient>
</defs>
</svg>
